<?xml version="1.0" encoding="utf-8"?>
<!-- Generator: Adobe Illustrator 16.0.4, SVG Export Plug-In . SVG Version: 6.00 Build 0)  -->
<!DOCTYPE svg PUBLIC "-//W3C//DTD SVG 1.1//EN" "http://www.w3.org/Graphics/SVG/1.1/DTD/svg11.dtd">
<svg version="1.1" id="Layer_1" xmlns="http://www.w3.org/2000/svg" xmlns:xlink="http://www.w3.org/1999/xlink" x="0px" y="0px"
	 width="29.8px" height="197.331px" viewBox="0 0 29.8 197.331" enable-background="new 0 0 29.8 197.331" xml:space="preserve">
<g>
	<polygon fill="#FFFFFF" points="2.1,55.4 0,53.3 25.5,27.7 0,2.1 2.1,0 29.8,27.7 	"/>
</g>
<g>
	<polygon fill="#FFFFFF" points="27.701,115.8 0,88 27.701,60.3 29.8,62.5 4.2,88 29.8,113.6 	"/>
</g>
<path fill="#707070" d="M7.8,120.1l7.8,7l-1.6,2l-6.2-5.5l-6.2,5.5l-1.6-2L7.8,120.1z"/>
<path fill="#707070" d="M0,138.2l1.6-2.102l6.2,5.5l6.2-5.5l1.6,2.102l-7.8,6.9L0,138.2z"/>
<path fill="#FFFFFF" d="M7,156.531l-5.432,6.034L0,161.357l4.226-4.827L0,151.703l1.568-1.207L7,156.531z"/>
<path fill="#1F62AF" d="M7,170.531l-5.432,6.034L0,175.357l4.226-4.827L0,165.703l1.568-1.207L7,170.531z"/>
</svg>
